<?xml version="1.0" standalone="no"?>
<!DOCTYPE svg PUBLIC "-//W3C//DTD SVG 1.1//EN" "http://www.w3.org/Graphics/SVG/1.1/DTD/svg11.dtd">
<svg xmlns="http://www.w3.org/2000/svg" id="Layer_2" viewBox="0 0 391.75 482.56" width="391.75" height="482.55999755859375"><defs><style>.cls-1{fill:#f4d60f;}.cls-2{fill:#f5d60e;}.cls-3{fill:#f5d60c;}.cls-4{fill:#f5d70e;}.cls-5{fill:#fff;}.cls-6{fill:#e31e26;}.cls-7{fill:#231f20;}.cls-8{fill:#30285d;}.cls-9{fill:#282762;}</style></defs><g id="Layer_3"><path class="cls-7" d="m191.83,6c1.34,0,2.69,0,4.04.03v.04c1.35-.02,2.7-.03,4.04-.03,74.16,0,139.72,26.05,183.85,59.43,13.64,173.37-42.24,333.66-187.89,411.1v-.04C50.23,399.08-5.66,238.8,7.99,65.43,52.11,32.05,117.67,6,191.83,6M191.83,0h0C123.65,0,55.32,22.1,4.37,60.64c-1.37,1.03-2.23,2.6-2.36,4.31-3.48,44.28-2.42,87.27,3.16,127.77,5.77,41.85,16.37,81.07,31.52,116.57,15.81,37.06,36.67,70.27,62,98.69,26.47,29.71,58.1,54.48,94,73.63.04.02.08.05.11.07.96.58,2.04.87,3.12.87.96,0,1.92-.23,2.79-.69,36.06-19.17,67.81-44.01,94.38-73.83,25.32-28.42,46.18-61.63,62-98.69,15.15-35.5,25.75-74.72,31.52-116.57,5.58-40.5,6.64-83.49,3.16-127.77-.13-1.71-.99-3.28-2.36-4.31C336.44,22.14,268.11.04,199.92.04c-1.15,0-2.29,0-3.44.02-.17-.02-.35-.03-.52-.03C194.58,0,193.2,0,191.83,0h0Z"/><path class="cls-9" d="m199.92,18.04c33.85,0,67.26,5.57,99.3,16.55,26.68,9.14,51.8,21.98,72.99,37.26,2.88,41.07,1.72,80.9-3.45,118.46-5.55,40.27-15.72,77.94-30.24,111.97-15.05,35.27-34.85,66.82-58.88,93.78-23.75,26.65-51.89,49.11-83.73,66.83-31.86-17.72-60.03-40.2-83.79-66.87-24.02-26.96-43.83-58.51-58.88-93.78-14.52-34.03-24.69-71.7-30.24-111.97-5.18-37.56-6.33-77.39-3.45-118.46,21.2-15.28,46.32-28.12,72.99-37.26,29.53-10.12,60.21-15.64,91.34-16.45v.11l12.15-.16c1.3-.02,2.59-.02,3.89-.02"/><path class="cls-1" d="m329.94,231.13l-64.18-25.13-10.22-68.17-59.67,34.51-59.67-34.51-10.22,68.17-64.18,25.13,46.92,50.49-20.37,65.85,68.73-5.21,38.78,56.98,38.78-56.98,68.73,5.21-20.37-65.85,46.92-50.49Zm-134.07,113.47c-45.83,0-82.97-37.15-82.97-82.97s37.15-82.97,82.97-82.97,82.97,37.15,82.97,82.97-37.15,82.97-82.97,82.97Z"/><path class="cls-1" d="m195.87,209.17c28.93,0,52.47,23.54,52.47,52.47s-23.54,52.47-52.47,52.47-52.47-23.54-52.47-52.47,23.54-52.47,52.47-52.47m0-2.5c-30.36,0-54.97,24.61-54.97,54.97s24.61,54.97,54.97,54.97,54.97-24.61,54.97-54.97-24.61-54.97-54.97-54.97h0Z"/><path class="cls-1" d="m138.31,249.08l-19.4-7.38,1.83-4.8,14.35,2.14-12.16-7.91,1.83-4.83,19.4,7.38-1.14,2.99-15.29-5.81,14.08,8.98-1.18,3.09-16.48-2.66,15.29,5.81-1.14,2.99Z"/><path class="cls-1" d="m146.06,231.55l-17.36-11.39,1.88-2.87,17.36,11.39-1.88,2.87Z"/><path class="cls-1" d="m134.49,211.65l4.38-4.48c1.11-1.13,2.07-1.86,2.89-2.19.82-.33,1.76-.44,2.84-.34,1.08.1,2.23.48,3.46,1.15,1.23.66,2.55,1.69,3.98,3.08,1.28,1.25,2.25,2.49,2.92,3.71s1.05,2.32,1.17,3.31c.12.99,0,1.93-.33,2.84-.34.9-.99,1.85-1.96,2.84l-4.51,4.61-14.83-14.52Zm4.91,0l9.81,9.61,1.8-1.84c.77-.79,1.26-1.43,1.46-1.93.2-.5.26-1.01.18-1.53-.08-.52-.37-1.17-.87-1.95-.5-.78-1.28-1.69-2.34-2.73-1.1-1.08-2.04-1.85-2.82-2.32-.78-.47-1.51-.72-2.19-.76s-1.3.12-1.86.47c-.42.26-1.12.88-2.08,1.86l-1.09,1.11Z"/><path class="cls-1" d="m157.62,210.78l-2.22-3.3,5.33-3.57,2.22,3.3-5.33,3.57Z"/><path class="cls-1" d="m181.88,204.77l-3.46,1.4-3.14-3.8-6.32,2.55.46,4.89-3.39,1.37-1.63-21.73,3.37-1.36,14.1,16.69Zm-8.94-5.25l-5.07-6.26.75,8.01,4.32-1.74Z"/><path class="cls-1" d="m185.25,204.66l-2.62-17.05-5,.77-.53-3.47,13.37-2.05.53,3.47-4.98.77,2.62,17.05-3.39.52Z"/><path class="cls-1" d="m193.31,203.53l.99-20.56,3.42.17-.82,17.06,8.54.41-.17,3.51-11.97-.58Z"/><path class="cls-1" d="m223.12,209.75l-3.52-1.22.14-4.93-6.44-2.24-2.87,3.98-3.45-1.2,13.08-17.43,3.44,1.2-.38,21.85Zm-3.27-9.83l.31-8.05-4.71,6.52,4.4,1.53Z"/><path class="cls-1" d="m223.96,210.45l11.97-16.96,2.73,1.93-2.3,15.34,7.99-11.33,2.61,1.84-11.97,16.96-2.82-1.99,2.2-15.01-7.8,11.06-2.62-1.84Z"/><path class="cls-1" d="m239.51,223.25l13.19-11.11-3.25-3.87,2.69-2.26,8.71,10.35-2.69,2.26-3.25-3.86-13.2,11.11-2.21-2.62Z"/><path class="cls-1" d="m245.63,231.45l17.96-10.41,1.72,2.96-17.96,10.41-1.72-2.96Z"/><path class="cls-1" d="m259.73,244.66l-.15,3.57c-2.37.26-4.25-.01-5.65-.81s-2.39-2.03-2.96-3.7c-.72-2.1-.49-4.08.69-5.93,1.36-2.14,3.62-3.75,6.79-4.83,3.35-1.14,6.23-1.28,8.64-.42,2.09.75,3.52,2.24,4.27,4.46.62,1.81.51,3.53-.3,5.17-.58,1.17-1.66,2.24-3.25,3.23l-2.04-2.9c.99-.57,1.67-1.26,2.03-2.06s.4-1.63.11-2.46c-.41-1.19-1.26-1.99-2.55-2.38-1.29-.4-3.13-.19-5.52.62-2.47.84-4.11,1.81-4.91,2.9-.8,1.09-.99,2.22-.59,3.39.29.86.88,1.49,1.76,1.88s2.09.49,3.63.27Z"/><path class="cls-2" d="m136.97,259.6l.3,3.41-11.2,1c-1.74.15-2.87.3-3.39.43-.9.23-1.57.66-2.02,1.27-.45.61-.63,1.39-.55,2.32.07.79.3,1.42.7,1.89s.92.77,1.56.89c.64.13,1.99.1,4.05-.08l11.44-1.02.3,3.41-10.86.97c-2.77.25-4.79.28-6.05.09-1.26-.19-2.32-.76-3.18-1.73-.86-.97-1.37-2.31-1.52-4.01-.16-1.77.04-3.18.58-4.22.55-1.05,1.38-1.85,2.49-2.4,1.11-.55,3.21-.96,6.31-1.24l11.03-.98Z"/><path class="cls-2" d="m118.95,281.61l19.53-7.03,1.13,3.14-10.68,11.25,13.04-4.7,1.08,3.01-19.53,7.03-1.17-3.25,10.42-11.03-12.74,4.59-1.08-3.01Z"/><path class="cls-2" d="m126.27,299.2l17.99-10.35,1.71,2.97-17.99,10.36-1.71-2.97Z"/><path class="cls-2" d="m130.64,306.56l16.17-13.02,7.32,9.09-2.74,2.2-5.17-6.42-3.83,3.08,4.48,5.56-2.74,2.2-4.48-5.56-6.87,5.53-2.15-2.67Z"/><path class="cls-2" d="m147.65,311.24c1.5-1.97,3.02-3.37,4.57-4.21s3.03-1.21,4.45-1.12c1.41.09,2.79.64,4.13,1.66,1.94,1.47,2.96,3.41,3.06,5.82.1,2.41-.89,4.98-2.97,7.72-2.1,2.77-4.39,4.44-6.86,5.02-2.18.51-4.24.03-6.19-1.44-1.96-1.49-3-3.34-3.1-5.57-.11-2.54.86-5.16,2.92-7.88Zm2.91,2.03c-1.44,1.9-2.16,3.6-2.16,5.1,0,1.5.54,2.66,1.61,3.47,1.08.82,2.33,1.02,3.75.62s2.88-1.59,4.36-3.54c1.46-1.92,2.19-3.6,2.19-5.04s-.55-2.58-1.66-3.43c-1.12-.84-2.37-1.07-3.78-.68-1.4.39-2.84,1.56-4.31,3.5Z"/><path class="cls-2" d="m159.9,332.16l7.76-19.25,6.71,2.71c1.72.69,2.87,1.36,3.47,2,.6.64.96,1.49,1.09,2.53.13,1.04-.05,2.16-.53,3.35-.61,1.51-1.46,2.57-2.55,3.2s-2.35.79-3.78.49c.49.77.83,1.53,1.04,2.29.21.76.4,2.05.56,3.87l.4,4.53-3.8-1.53-.62-5.12c-.22-1.85-.4-3.02-.54-3.53-.14-.5-.35-.89-.63-1.17-.27-.28-.78-.57-1.51-.86l-.66-.26-3.24,8.04-3.18-1.28Zm7.66-9.83l2.36.95c1.44.58,2.39.89,2.83.92.45.03.87-.09,1.27-.38.4-.29.73-.75.99-1.39.25-.61.32-1.16.23-1.63-.1-.47-.33-.86-.69-1.17-.26-.22-1.1-.61-2.53-1.19l-2.5-1.01-1.97,4.88Z"/><path class="cls-2" d="m179.19,339.12l2.2-20.64,5.11.55,1.57,14.42,4.56-13.77,5.13.55-2.2,20.64-3.18-.34,1.74-16.26-5.11,15.9-3.29-.35-1.61-16.62-1.74,16.26-3.18-.34Z"/><path class="cls-2" d="m209.73,339.43l-4.95-19.98,3.33-.82,4.11,16.58,8.3-2.06.84,3.41-11.63,2.88Z"/><path class="cls-2" d="m226.24,334.69l-9.41-18.5,11.26-5.72,1.59,3.13-8.21,4.17,2.09,4.1,7.62-3.88,1.58,3.12-7.62,3.88,2.55,5.02,8.48-4.31,1.59,3.13-11.54,5.87Z"/><path class="cls-2" d="m254.28,315.45l-2.81,2.44-4.21-2.57-5.14,4.47,2.02,4.47-2.76,2.4-8.61-20.02,2.75-2.39,18.77,11.2Zm-10.16-2.05l-6.83-4.27,3.31,7.33,3.52-3.05Z"/><path class="cls-2" d="m255.62,300.76l-2.91-1.96,4.13-6.15,6.86,4.61c.31,1.11.35,2.41.11,3.9-.24,1.49-.74,2.81-1.51,3.95-.94,1.39-2.11,2.39-3.51,3-1.4.6-3,.76-4.78.46-1.79-.3-3.6-1.07-5.45-2.31-1.9-1.27-3.31-2.68-4.23-4.22-.92-1.54-1.38-3.03-1.37-4.49.01-1.45.49-2.88,1.43-4.29,1.13-1.68,2.47-2.75,4.01-3.18,1.54-.44,3.24-.24,5.09.58l-1.25,3.25c-1.03-.38-1.97-.45-2.82-.2s-1.54.76-2.06,1.55c-.82,1.21-1.01,2.51-.57,3.9s1.62,2.73,3.56,4.03c2.08,1.4,3.93,2.05,5.56,1.96,1.4-.07,2.5-.7,3.3-1.89.37-.56.63-1.22.77-2,.14-.78.14-1.55,0-2.33l-2.18-1.46-2.2,3.27Z"/><path class="cls-2" d="m249.16,286.39l1.09-3.25,10.65,3.59c1.66.56,2.75.88,3.28.97.92.15,1.7.03,2.36-.35.66-.38,1.13-1.02,1.43-1.91.25-.75.29-1.42.12-2.01-.18-.59-.53-1.07-1.07-1.45-.54-.38-1.78-.89-3.74-1.55l-10.88-3.67,1.09-3.25,10.33,3.48c2.64.89,4.5,1.67,5.58,2.35,1.08.68,1.82,1.63,2.22,2.87.4,1.23.32,2.66-.22,4.28-.57,1.68-1.31,2.89-2.23,3.63-.92.74-2,1.14-3.24,1.19-1.24.05-3.33-.41-6.27-1.41l-10.49-3.54Z"/><path class="cls-2" d="m274.43,273.65l-20.69-1.63.99-12.59,3.5.28-.72,9.17,4.59.36.67-8.53,3.49.28-.67,8.53,5.62.44.75-9.49,3.5.28-1.02,12.9Z"/><path class="cls-3" d="m46.8,155.29s16.19-8.93,23.82-11.54l.19-41.86,13.77,13.02,14.14-24.19v42.61s17.12-5.21,23.26-6.51l.19-82.98s-20.65,4.65-23.63,6.14l-13.58,28.03-14.14-17.61s-18.98,9.18-23.32,12.9l-.68,81.99Z"/><path class="cls-3" d="m174.12,36.58c-6.33.37-24.19,2.11-24.19,2.11l-20.4,86.83c7.07-1.74,24-3.97,24-3.97l1.6-10.4c7.55-.87,18.15-1.73,22.71-2.08l3.22,10.25c4.84-.37,23.19-.12,23.19-.12l-30.14-82.61Zm-16.19,56.44l4.9-31.76,9.46,30.12c-5.12.45-11.02,1.2-14.36,1.64Z"/><path class="cls-3" d="m203.21,35.84l-1.19,53.87c-.35,15.84,11.02,29.51,26.66,32.06l16.42,2.67c15.77,2.57,30.02-9.74,29.79-25.71l-.79-54.21s-16.25-3.6-23.44-4.34v57.11c0,4.46-4,7.85-8.4,7.13l-6.64-1.09c-4.86-.8-8.45-4.97-8.5-9.9l-.65-56.35s-16.06-1.49-23.26-1.24Z"/><path class="cls-3" d="m284.14,47.5l-.5,83.48s31.63,8.19,60.53,24.06l-.12-23.82s-25.8-12.9-36.72-16.37l-.12-59.91s-16.75-6.08-23.07-7.44Z"/><path class="cls-3" d="m178.08,256.68l-1.92-4.26c-.06-.14-.26-.17-.35-.04-.26.37-.52.76-.76,1.18-.2.34-.2.77-.02,1.12l2.06,3.89c.29-.72.63-1.34.99-1.88Z"/><path class="cls-3" d="m172.79,261.98c-.13-.09-.31,0-.32.16-.04.52-.06,1.03-.06,1.53,0,.42.22.81.58,1.04l3.51,2.23c-.3-.83-.48-1.77-.5-2.82l-3.2-2.14Z"/><path class="cls-3" d="m179.24,255.31l-1.47-4.75c-.05-.16-.25-.21-.37-.09-.26.27-.52.55-.78.85-.24.29-.29.69-.15,1.04l1.75,4.11c.32-.44.65-.82,1.01-1.15Z"/><path class="cls-3" d="m176.97,258.85l-2.25-4.02c-.08-.14-.28-.13-.35,0-.24.51-.47,1.04-.68,1.61-.09.24-.06.52.08.74l2.54,3.92c.02-.09.03-.18.05-.27.17-.73.38-1.39.6-1.99Z"/><path class="cls-3" d="m180.68,254.28l-.92-5.43c-.02-.15-.19-.22-.32-.13-.27.19-.53.39-.79.61-.42.35-.61.91-.46,1.44l1.24,4.38c.4-.34.81-.63,1.25-.86Z"/><path class="cls-3" d="m182.63,246.54l-.63-9.44c-.02-.36-.4-.6-.73-.46-.71.3-1.42.66-2.12,1.07-.41.24-.63.72-.55,1.2l1.37,9.02c.9-.58,1.81-1.03,2.67-1.39Z"/><path class="cls-3" d="m170.8,269.07l.28.1,1.82.61c-.33-1.2-.59-2.48-.73-3.82l-2.55-.69c-.22-.06-.43.13-.39.36.15.77.32,1.54.52,2.32.13.53.53.95,1.05,1.12Z"/><path class="cls-3" d="m187.12,235.92c0-.33-.27-.61-.61-.58-.94.08-1.92.25-2.91.51-.67.18-1.13.81-1.1,1.5l.46,9.05c1.55-.61,2.94-.92,3.94-1.07l.21-9.41Z"/><path class="cls-3" d="m170.56,248.3c-.25.63-.48,1.27-.69,1.92-.13.41-.06.85.17,1.21l3.25,5.02c.3-.84.64-1.62,1.02-2.34l-3.28-5.85c-.11-.2-.4-.18-.48.03Z"/><path class="cls-3" d="m178.41,237.73c1.15-.73,2.33-1.3,3.51-1.73l-1.16-17.41c-.06-.97-1.11-1.53-1.96-1.06-.38.21-.77.44-1.16.68-1.21.73-1.87,2.12-1.65,3.52l2.42,16Z"/><path class="cls-3" d="m185.03,274.57c-1.72-.32-3.37-.93-4.96-1.65-1.58-.73-3.1-1.61-4.55-2.56-.77-.51-1.53-1.05-2.27-1.61-.11-.08-.27.02-.23.15.06.24.12.47.18.7.18.66.58,1.25,1.14,1.65.87.63,1.77,1.23,2.69,1.78,1.38.83,2.81,1.59,4.31,2.18,1.49.59,3.05,1.05,4.65,1.22,1.1.12,2.21.1,3.3-.12l-.1-1.64c-1.38.22-2.79.16-4.16-.11Z"/><path class="cls-3" d="m170.06,264.94l2.09.74c-.1-1.04-.12-2.12-.05-3.23l-2.93-2.14c-.22-.16-.54,0-.52.28.05.97.13,1.95.26,2.94.09.65.54,1.19,1.16,1.41Z"/><path class="cls-3" d="m186.73,253.08l.16-7.05c0-.17-.15-.31-.32-.28-.71.13-1.57.33-2.52.64-.63.21-1.04.83-1.01,1.49l.28,5.48c1.12-.21,2.28-.27,3.41-.29Z"/><path class="cls-3" d="m182.57,272.37c-2.3-.82-4.74-2.31-5.9-4.96l-3.84-2.1c-.17-.09-.38.04-.36.24.03.36.07.71.12,1.06.08.57.35,1.09.8,1.46.79.64,1.6,1.26,2.44,1.84,1.42.98,2.89,1.87,4.43,2.62,1.54.75,3.15,1.38,4.83,1.73,1.34.29,2.73.37,4.08.18l-.07-1.17c-1.83-.07-4.79-.28-6.53-.9Z"/><path class="cls-3" d="m172.33,244.58c-.31.59-.95,1.82-1.13,2.2-.11.23-.1.5.02.72l3.3,6.24c.41-.73.85-1.41,1.32-2.02l-3.18-7.12c-.06-.14-.26-.14-.33-.01Z"/><path class="cls-3" d="m169.4,252.02c-.19.79-.34,1.58-.47,2.39-.08.53.09,1.07.44,1.48l3.11,3.59c.05-.23.08-.45.13-.68.15-.66.33-1.28.53-1.87l-3.41-4.97c-.09-.13-.3-.09-.34.06Z"/><path class="cls-3" d="m168.7,256.43c-.06.68-.09,1.36-.1,2.05,0,.48.21.94.59,1.25l2.92,2.41c.06-.77.17-1.56.32-2.36l-3.32-3.49c-.14-.14-.39-.06-.4.14Z"/><path class="cls-3" d="m173.25,257.82c-.16.71-.47,2.12-.61,2.88-.04.22.05.44.22.58l3.13,2.49c0-.72.09-1.49.25-2.31l-2.63-3.71c-.1-.14-.32-.1-.36.07Z"/><path class="cls-3" d="m183.09,253.42l-.4-5.97c-.02-.25-.28-.42-.51-.31-.51.23-1.02.5-1.54.81-.38.22-.57.67-.51,1.1l.78,5.12c.7-.35,1.43-.59,2.19-.75Z"/><path class="cls-3" d="m171.91,273.12c-.24-.02-.42.22-.33.44.32.8.66,1.59,1.02,2.39.13.29.36.53.64.67,1.05.53,2.18,1.03,3.35,1.47-.77-1.34-1.65-2.94-2.44-4.78l-2.24-.19Z"/><path class="cls-3" d="m185.95,276.75c-2.59-.23-5.08-1.17-7.36-2.27-1.3-.62-2.51-1.4-3.72-2.18-.95-.61-.69.22-.39.93.13.3.34.56.62.74.92.6,1.86,1.18,2.83,1.69,1.35.71,2.76,1.32,4.22,1.77,1.46.45,2.98.71,4.5.73.91.01,1.82-.08,2.72-.25l-.08-1.34c-1.1.23-2.23.28-3.34.18Z"/><path class="cls-3" d="m170.21,270.82c-.36-1.1-.67-2.2-.93-3.28l-6.35-3.65c-.25-.14-.55.08-.49.36.13.59.26,1.14.38,1.66.12.51.45.94.9,1.2l6.49,3.71Z"/><path class="cls-3" d="m172.36,272.82l1.68.24c-.39-.94-.75-1.94-1.06-3l-2.35-.7c-.19-.06-.37.11-.31.3.12.45.33,1.19.55,1.88.21.68.79,1.18,1.5,1.28Z"/><path class="cls-3" d="m177.45,238.85c-.53.39-1.04.82-1.55,1.29-.36.33-.49.85-.35,1.32l2.3,8.08c.59-.53,1.19-.99,1.8-1.4l-1.52-9.01c-.05-.31-.42-.47-.67-.28Z"/><path class="cls-3" d="m186.65,278.42c-1.55,0-3.1-.25-4.59-.68-2.33-.68-4.51-1.76-6.58-3.03-.13-.08-.27.06-.21.19.5,1,1.01,1.92,1.49,2.77.22.39.58.7,1.01.84,3.59,1.2,7.6,1.8,11.68,1.01l-.08-1.38c-.9.18-1.81.28-2.73.28Z"/><path class="cls-3" d="m164.17,268.22c-.33-.16-.7.15-.6.51.07.25.14.48.21.68.21.66.59,1.25,1.12,1.7,1.25,1.06,3.89,3.14,7.38,5.01-.75-1.65-1.41-3.3-1.95-4.93l-6.16-2.97Z"/><path class="cls-3" d="m175.22,240.29c.87-.86,1.78-1.6,2.72-2.24l-2.79-16.49c-.12-.7-.94-1.02-1.5-.58-.64.51-1.27,1.05-1.89,1.62-.76.7-1.06,1.77-.78,2.76l4.24,14.93Z"/><path class="cls-3" d="m187.14,234.93l.41-18.18c.03-1.46-1.41-2.49-2.78-1.99-.68.25-1.45.56-2.3.93-.62.27-1.01.91-.98,1.58l.94,18.54c1.62-.54,3.22-.82,4.71-.89Z"/><path class="cls-3" d="m169.42,250.46c.31-1.05.69-2.08,1.12-3.08l-6.43-11.47c-.23-.41-.83-.34-.97.1-.2.61-.38,1.22-.55,1.83-.26.92-.11,1.91.41,2.72l6.42,9.91Z"/><path class="cls-3" d="m170.83,246.74c.26-.55.52-1.1.82-1.64.22-.41.46-.8.7-1.18l-5.82-12.96c-.24-.53-.98-.55-1.25-.04-.25.47-.49.95-.71,1.44-.39.84-.37,1.82.07,2.65l6.2,11.72Z"/><path class="cls-3" d="m172.67,243.41c.65-.97,1.34-1.84,2.08-2.62l-4.68-15.1c-.15-.48-.76-.6-1.08-.22-.46.54-.9,1.1-1.33,1.68-.76,1.03-.89,2.39-.39,3.56l5.41,12.69Z"/><path class="cls-3" d="m174.29,241.85c-.35.42-.69.86-1.02,1.33-.27.39-.31.89-.13,1.33l2.94,6.91c.47-.58.96-1.11,1.46-1.59l-2.42-7.81c-.11-.37-.59-.46-.83-.16Z"/><path class="cls-3" d="m168.74,253.36c.13-.72.29-1.44.48-2.14l-6.84-9.97c-.17-.25-.55-.17-.61.13-.1.51-.18,1.03-.26,1.54-.12.79.09,1.6.59,2.22l6.64,8.22Z"/><path class="cls-3" d="m161.96,254.74l6.29,4.98c-.02-1.02-.01-2.03.06-3.03l-6.68-5.32c-.27-.21-.66-.02-.66.32,0,.38.02.75.03,1.12.03.75.38,1.45.97,1.92Z"/><path class="cls-3" d="m162,258.63l6.53,4.89c-.15-1.17-.25-2.32-.29-3.46l-6.48-4.61c-.26-.19-.62.02-.6.34.05.57.1,1.13.16,1.68.05.46.3.88.67,1.16Z"/><path class="cls-3" d="m169.18,267.16c-.25-1.1-.44-2.2-.6-3.28l-6.45-4.31c-.23-.15-.53.04-.49.31.1.65.2,1.27.3,1.88.08.45.34.84.72,1.09l6.51,4.31Z"/><path class="cls-3" d="m168.33,256.39c.07-.91.2-1.81.36-2.7l-6.91-7.55c-.22-.24-.62-.1-.65.22-.05.65-.09,1.3-.12,1.94-.04.93.33,1.84,1.02,2.46l6.31,5.64Z"/><path class="cls-3" d="m213.67,256.68l1.92-4.26c.06-.14.26-.17.35-.04.26.37.52.76.76,1.18.2.34.2.77.02,1.12l-2.06,3.89c-.29-.72-.63-1.34-.99-1.88Z"/><path class="cls-3" d="m219.28,262.14c.04.52.06,1.03.06,1.53,0,.42-.22.81-.58,1.04l-3.51,2.23c.3-.83.48-1.77.5-2.82l3.2-2.14c.13-.09.31,0,.32.16Z"/><path class="cls-3" d="m212.51,255.31l1.47-4.75c.05-.16.25-.21.37-.09.26.27.52.55.78.85s.29.69.15,1.04l-1.75,4.11c-.32-.44-.65-.82-1.01-1.15Z"/><path class="cls-3" d="m214.78,258.85l2.25-4.02c.08-.14.28-.13.35,0,.24.51.47,1.04.68,1.61.09.24.06.52-.08.74l-2.54,3.92c-.02-.09-.03-.18-.05-.27-.17-.73-.38-1.39-.6-1.99Z"/><path class="cls-3" d="m211.06,254.28l.92-5.43c.02-.15.19-.22.32-.13.27.19.53.39.79.61.42.35.61.91.46,1.44l-1.24,4.38c-.4-.34-.81-.63-1.25-.86Z"/><path class="cls-3" d="m213.16,238.91l-1.37,9.02c-.9-.58-1.81-1.03-2.67-1.39l.63-9.44c.02-.36.4-.6.73-.46.71.3,1.42.66,2.12,1.07.41.24.63.72.55,1.2Z"/><path class="cls-3" d="m220.67,269.17l-1.82.61c.33-1.2.59-2.48.73-3.82l2.55-.69c.22-.06.43.13.39.36-.15.77-.32,1.54-.52,2.32-.13.53-.53.95-1.05,1.12l-.28.1Z"/><path class="cls-3" d="m208.79,246.4c-1.55-.61-2.94-.92-3.94-1.07l-.21-9.41c0-.33.27-.61.61-.58.94.08,1.92.25,2.91.51.67.18,1.13.81,1.1,1.5l-.46,9.05Z"/><path class="cls-3" d="m221.7,251.43l-3.25,5.02c-.3-.84-.64-1.62-1.02-2.34l3.28-5.85c.11-.2.4-.18.48.03.25.63.48,1.27.69,1.92.13.41.06.85-.17,1.21Z"/><path class="cls-3" d="m215.76,221.73l-2.42,16c-1.15-.73-2.33-1.3-3.51-1.73l1.16-17.41c.06-.97,1.11-1.53,1.96-1.06.38.21.77.44,1.16.68,1.21.73,1.87,2.12,1.65,3.52Z"/><path class="cls-3" d="m206.72,274.57c1.72-.32,3.37-.93,4.96-1.65,1.58-.73,3.1-1.61,4.55-2.56.77-.51,1.53-1.05,2.27-1.61.11-.08.27.02.23.15-.06.24-.12.47-.18.7-.18.66-.58,1.25-1.14,1.65-.87.63-1.77,1.23-2.69,1.78-1.38.83-2.81,1.59-4.31,2.18-1.49.59-3.05,1.05-4.65,1.22-1.1.12-2.21.1-3.3-.12l.1-1.64c1.38.22,2.79.16,4.16-.11Z"/><path class="cls-3" d="m219.61,265.68c.1-1.04.12-2.12.05-3.23l2.93-2.14c.22-.16.54,0,.52.28-.05.97-.13,1.95-.26,2.94-.09.65-.54,1.19-1.16,1.41l-2.09.74Z"/><path class="cls-3" d="m208.43,253.37c-1.12-.21-2.28-.27-3.41-.29l-.16-7.05c0-.17.15-.31.32-.28.71.13,1.57.33,2.52.64.63.21,1.04.83,1.01,1.49l-.28,5.48Z"/><path class="cls-3" d="m215.08,267.41l3.84-2.1c.17-.09.38.04.36.24-.03.36-.07.71-.12,1.06-.08.57-.35,1.09-.8,1.46-.79.64-1.6,1.26-2.44,1.84-1.42.98-2.89,1.87-4.43,2.62-1.54.75-3.15,1.38-4.83,1.73-1.34.29-2.73.37-4.08.18l.07-1.17c1.83-.07,4.79-.28,6.53-.9,2.3-.82,4.74-2.31,5.9-4.96Z"/><path class="cls-3" d="m215.91,251.71l3.18-7.12c.06-.14.26-.14.33-.01.31.59.95,1.82,1.13,2.2.11.23.1.5-.02.72l-3.3,6.24c-.41-.73-.85-1.41-1.32-2.02Z"/><path class="cls-3" d="m222.82,254.41c.08.53-.09,1.07-.44,1.48l-3.11,3.59c-.05-.23-.08-.45-.13-.68-.15-.66-.33-1.28-.53-1.87l3.41-4.97c.09-.13.3-.09.34.06.19.79.34,1.58.47,2.39Z"/><path class="cls-3" d="m222.57,259.73l-2.92,2.41c-.06-.77-.17-1.56-.32-2.36l3.32-3.49c.14-.14.39-.06.4.14.06.68.09,1.36.1,2.05,0,.48-.21.94-.59,1.25Z"/><path class="cls-3" d="m218.89,261.27l-3.13,2.49c0-.72-.09-1.49-.25-2.31l2.63-3.71c.1-.14.32-.1.36.07.16.71.47,2.12.61,2.88.04.22-.05.44-.22.58Z"/><path class="cls-3" d="m208.66,253.42l.4-5.97c.02-.25.28-.42.51-.31.51.23,1.02.5,1.54.81.38.22.57.67.51,1.1l-.78,5.12c-.7-.35-1.43-.59-2.19-.75Z"/><path class="cls-3" d="m215.16,278.09c.77-1.34,1.65-2.94,2.44-4.78l2.24-.19c.24-.02.42.22.33.44-.32.8-.66,1.59-1.02,2.39-.13.29-.36.53-.64.67-1.05.53-2.18,1.03-3.35,1.47Z"/><path class="cls-3" d="m209.6,277.42c-1.46.45-2.98.71-4.5.73-.91.01-1.82-.08-2.72-.25l.08-1.34c1.1.23,2.23.28,3.34.18,2.59-.23,5.08-1.17,7.36-2.27,1.3-.62,2.51-1.4,3.72-2.18.95-.61.69.22.39.93-.13.3-.34.56-.62.74-.92.6-1.86,1.18-2.83,1.69-1.35.71-2.76,1.32-4.22,1.77Z"/><path class="cls-3" d="m222.47,267.54l6.35-3.65c.25-.14.55.08.49.36-.13.59-.25,1.14-.38,1.66s-.45.94-.9,1.2l-6.49,3.71c.36-1.1.67-2.2.93-3.28Z"/><path class="cls-3" d="m217.71,273.06c.39-.94.75-1.94,1.06-3l2.35-.7c.19-.06.37.11.31.3-.12.45-.33,1.19-.55,1.88s-.79,1.18-1.5,1.28l-1.68.24Z"/><path class="cls-3" d="m213.9,249.54c-.59-.53-1.19-.99-1.8-1.4l1.52-9.01c.05-.31.42-.47.67-.28.53.39,1.04.82,1.55,1.29.36.33.49.85.35,1.32l-2.3,8.08Z"/><path class="cls-3" d="m205.1,278.42c1.55,0,3.1-.25,4.59-.68,2.33-.68,4.51-1.76,6.58-3.03.13-.08.27.06.21.19-.5,1-1.01,1.92-1.49,2.77-.22.39-.58.7-1.01.84-3.59,1.2-7.6,1.8-11.68,1.01l.08-1.38c.9.18,1.81.28,2.73.28Z"/><path class="cls-3" d="m221.42,271.19l6.16-2.97c.33-.16.7.15.6.51-.07.25-.14.48-.21.68-.21.66-.59,1.25-1.12,1.7-1.25,1.06-3.89,3.14-7.38,5.01.75-1.65,1.41-3.3,1.95-4.93Z"/><path class="cls-3" d="m216.53,240.29c-.87-.86-1.78-1.6-2.72-2.24l2.79-16.49c.12-.7.94-1.02,1.5-.58.64.51,1.27,1.05,1.89,1.62.76.7,1.06,1.77.78,2.76l-4.24,14.93Z"/><path class="cls-3" d="m209.32,235.82c-1.62-.54-3.22-.82-4.71-.89l-.41-18.18c-.03-1.46,1.41-2.49,2.78-1.99.68.25,1.45.56,2.3.93.62.27,1.01.91.98,1.58l-.94,18.54Z"/><path class="cls-3" d="m222.33,250.46c-.31-1.05-.69-2.08-1.12-3.08l6.43-11.47c.23-.41.83-.34.97.1.2.61.38,1.22.55,1.83.26.92.11,1.91-.41,2.72l-6.42,9.91Z"/><path class="cls-3" d="m220.92,246.74c-.26-.55-.52-1.1-.82-1.64-.22-.41-.46-.8-.7-1.18l5.82-12.96c.24-.53.98-.55,1.25-.04.25.47.49.95.71,1.44.39.84.37,1.82-.07,2.65l-6.2,11.72Z"/><path class="cls-3" d="m224.49,230.72l-5.41,12.69c-.65-.97-1.34-1.84-2.08-2.62l4.68-15.1c.15-.48.76-.59,1.08-.22.46.54.9,1.1,1.33,1.68.76,1.03.89,2.39.39,3.56Z"/><path class="cls-3" d="m218.61,244.51l-2.94,6.91c-.47-.58-.96-1.11-1.46-1.59l2.42-7.81c.11-.37.59-.46.83-.16.35.42.69.86,1.02,1.33.27.39.31.89.13,1.33Z"/><path class="cls-3" d="m223.01,253.36c-.13-.72-.29-1.44-.48-2.14l6.84-9.97c.17-.25.55-.17.61.13.1.51.18,1.03.26,1.54.12.79-.09,1.6-.59,2.22l-6.64,8.22Z"/><path class="cls-3" d="m223.51,259.73c.02-1.02.01-2.03-.06-3.03l6.68-5.32c.27-.21.66-.02.66.32,0,.38-.02.75-.03,1.12-.03.75-.38,1.45-.97,1.92l-6.29,4.98Z"/><path class="cls-3" d="m223.22,263.52c.15-1.17.25-2.32.29-3.46l6.48-4.61c.26-.19.62.02.6.34-.05.57-.1,1.13-.16,1.68-.05.46-.3.88-.67,1.16l-6.53,4.89Z"/><path class="cls-3" d="m222.57,267.16c.25-1.1.44-2.2.6-3.28l6.45-4.31c.23-.15.53.04.49.31-.1.65-.2,1.27-.3,1.88-.08.45-.34.84-.72,1.09l-6.51,4.31Z"/><path class="cls-3" d="m223.07,253.69l6.91-7.55c.22-.24.62-.1.65.22.05.65.09,1.3.12,1.94.04.93-.33,1.84-1.02,2.46l-6.31,5.64c-.07-.91-.2-1.81-.36-2.7Z"/><path class="cls-3" d="m182.39,290.54c-3.02-.37-4.62.31-4.92,1.72,0,0-.49-1.29-2.12-1.17s-1.17,1.29-2.34,1.6c0,0,1.23.55,2.89-.49,0,0,.31.68-.22.89s-1.45.25-1.94.89-.8.89-1.17.83c0,0,1.08.58,2.12.25s1.82-.95,1.97-1.38c0,0,.31.71-.06,1.17s-2.12,1.72-1.35,2.65c0,0,.43-.8,1.26-1.02s1.85-2,1.6-2.86c0,0,.92-1.97,3.23-1.51"/><path class="cls-3" d="m182.74,306.36s.03.02.04.03c1.07.71,2.53.23,2.95-.99l3.58-10.55-1.77-.16-5.48,8.1c-.8,1.18-.49,2.78.69,3.58Z"/><path class="cls-3" d="m192.92,295.17l-3.45-.31-2.92,10.28c-.5,1.77.45,3.63,2.19,4.23.02,0,.04.01.06.02,1.53.52,3.15-.53,3.27-2.15l.85-12.08Z"/><path class="cls-3" d="m184.99,294.45l-3.77-.34-5.1,4.26c-.53.45-.62,1.23-.18,1.77,0,0,.01.02.02.03.45.55,1.25.64,1.8.19l7.22-5.91Z"/><path class="cls-3" d="m187.33,294.66l-1.98-.18-6.59,5.89c-.81.73-.85,2-.05,2.75,0,0,.02.02.03.03.73.69,1.91.6,2.5-.21l6.09-8.27Z"/><path class="cls-3" d="m209.36,290.54c3.02-.37,4.62.31,4.92,1.72,0,0,.49-1.29,2.12-1.17s1.17,1.29,2.34,1.6c0,0-1.23.55-2.89-.49,0,0-.31.68.22.89s1.45.25,1.94.89.8.89,1.17.83c0,0-1.08.58-2.12.25s-1.82-.95-1.97-1.38c0,0-.31.71.06,1.17s2.12,1.72,1.35,2.65c0,0-.43-.8-1.26-1.02s-1.85-2-1.6-2.86c0,0-.92-1.97-3.23-1.51"/><path class="cls-3" d="m209.01,306.36s-.03.02-.04.03c-1.07.71-2.53.23-2.95-.99l-3.58-10.55,1.77-.16,5.48,8.1c.8,1.18.49,2.78-.69,3.58Z"/><path class="cls-3" d="m198.83,295.17l3.45-.31,2.92,10.28c.5,1.77-.45,3.63-2.19,4.23-.02,0-.04.01-.06.02-1.53.52-3.15-.53-3.27-2.15l-.85-12.08Z"/><path class="cls-3" d="m195.87,310.62c1.87,0,3.38-1.45,3.3-3.13l-.56-12.3-2.74.27-2.74-.27-.56,12.3c-.08,1.68,1.52,3.1,3.3,3.13Z"/><path class="cls-3" d="m206.76,294.45l3.77-.34,5.1,4.26c.53.45.62,1.23.18,1.77,0,0-.01.02-.02.03-.45.55-1.25.64-1.8.19l-7.22-5.91Z"/><path class="cls-3" d="m204.42,294.66l1.98-.18,6.59,5.89c.81.73.85,2,.05,2.75,0,0-.02.02-.03.03-.73.69-1.91.6-2.5-.21l-6.09-8.27Z"/><path class="cls-3" d="m215.03,260.92c-1.55-6.52-5.53-7.32-9.41-7.46-.32-.01-.59.25-.59.56h0c0,.3.22.53.51.57,4.52.69,4,4.37,4,4.37,0,0-2-.19-2.46,1.23-.56,1.7.25,2.47.25,2.47,0,0-1.05,1.23-4.12.98-2.52-.23-2.47-1.24-2.65-3.14-.18-1.89,1.34-3.09,1.57-4.9.23-1.79,0-5.76-4.61-5.91-4.61-.14-4.57,2.4-4.57,2.4,0,0-2.08-.97-3.41.51-1.34,1.48.14,3.28.14,3.28-.19-1.02,1.38-1.71,2.91-1.16,1.53.56,1.15,2.68,1.15,2.68,0,0-2.86.14-3.46,2.03-.6,1.89.87,3.23.87,3.23,0,0-.51.69-2.6.97-3.07.25-4.12-.98-4.12-.98,0,0,.8-.77.25-2.47-.46-1.42-2.46-1.23-2.46-1.23,0,0-.52-3.67,4-4.37.28-.04.5-.27.51-.56,0-.33-.26-.59-.59-.58-3.88.13-7.85.93-9.41,7.46-1.63,6.84,2.35,9.82,5.98,11.11,1.66.59,4.57.8,6.38.87,0,0,11.45.07,13.59,0,1.81-.07,4.72-.27,6.38-.87,3.63-1.29,7.61-4.27,5.98-11.11Zm-18.74-7.98c-.44.28-1.05.14-1.51-.18-.34-.24-.58-.15-.69-.09-.02.01-.04.03-.05.04,0,0,.02-.02.05-.04,1.18-.9,2.36-1.33,3.22-.05,0,0-.48-.03-1.03.32Z"/><path class="cls-8" d="m212.73,267.22v30.91s-1.35.75-3.59,1.63c-.93.36-2.02.75-3.22,1.11-1.16.35-2.44.69-3.79.95-1.06.21-2.17.38-3.32.5-1,.09-2.02.15-3.07.15-.94,0-1.86-.05-2.75-.14-1.1-.1-2.16-.27-3.18-.47-1.35-.26-2.62-.59-3.78-.95-1.21-.37-2.3-.77-3.23-1.14-2.21-.88-3.54-1.65-3.54-1.65v-30.91h33.48Z"/><path d="m182.79,267.22v32.55c-2.21-.88-3.54-1.65-3.54-1.65v-30.91h3.54Z"/><path d="m189.8,267.22v34.64c-1.35-.26-2.62-.59-3.78-.95v-33.69h3.78Z"/><path d="m212.73,267.22v30.91s-1.35.75-3.59,1.63v-32.53h3.59Z"/><path d="m205.91,267.22v33.65c-1.16.35-2.44.69-3.79.95v-34.59h3.79Z"/><path class="cls-5" d="m198.81,267.22v35.09c-1,.09-2.02.15-3.07.15-.94,0-1.86-.05-2.75-.14v-35.11h5.82Z"/><path class="cls-6" d="m200.85,275.19c-.83-1.57-2.79-1.39-4.98.98-2.19-2.37-4.15-2.55-4.98-.98-.99,1.88.93,3.34,4.98,7.43,4.05-4.08,5.97-5.55,4.98-7.43Z"/><path class="cls-4" d="m199.92,18.04c33.85,0,67.26,5.57,99.3,16.55,26.68,9.14,51.8,21.98,72.99,37.26,2.88,41.07,1.72,80.9-3.45,118.46-5.55,40.27-15.72,77.94-30.24,111.97-15.05,35.27-34.85,66.82-58.88,93.78-23.75,26.65-51.89,49.11-83.73,66.83-31.86-17.72-60.03-40.2-83.79-66.87-24.02-26.96-43.83-58.51-58.88-93.78-14.52-34.03-24.69-71.7-30.24-111.97-5.18-37.56-6.33-77.39-3.45-118.46,21.2-15.28,46.32-28.12,72.99-37.26,29.53-10.12,60.21-15.64,91.34-16.45v.11l12.15-.16c1.3-.02,2.59-.02,3.89-.02m-8.08-12.04c-74.17,0-139.72,26.05-183.85,59.43C-5.66,238.8,50.23,399.08,195.87,476.53v.04c145.65-77.44,201.53-237.73,187.89-411.1C339.64,32.09,274.07,6.04,199.92,6.04c-1.35,0-2.69,0-4.04.03v-.04c-1.35-.02-2.7-.03-4.04-.03h0Z"/></g></svg>